<?xml version="1.0" encoding="UTF-8"?>
<svg id="Layer_2" xmlns="http://www.w3.org/2000/svg" xmlns:xlink="http://www.w3.org/1999/xlink" viewBox="0 0 137 137">
  <defs>
    <style>
      .cls-1 {
        fill: url(#linear-gradient);
      }
    </style>
    <linearGradient id="linear-gradient" x1="19.95" y1="116.78" x2="117.1" y2="20.17" gradientUnits="userSpaceOnUse">
      <stop offset="0" stop-color="#99a6f6" />
      <stop offset="1" stop-color="#fd6ef3" />
    </linearGradient>
  </defs>
  <g id="Layer_1-2">
    <path class="cls-1" d="M97,0H40C18,0,0,18,0,40v57c0,22,18,40,40,40h57c22,0,40-18,40-40V40C137,18,119,0,97,0Zm16.85,93.21c-6.14,12.65-17.37,21.37-31.58,24.48-3.86,.85-7.85,1.25-11.81,1.25-11.63,0-23.1-3.51-30.77-9.81l-.08-.07C11.42,85.07,15.55,58.77,18.57,39.57c.52-3.27,3.59-5.51,6.86-5,3.27,.52,5.51,3.59,5,6.86-2.86,18.2-6.11,38.83,16.92,58.46,6.33,5.16,19.46,8.9,32.36,6.08,7.46-1.63,17.57-6.1,23.4-18.1,7.34-14.49,6.26-36.63-2.24-47.57-6.41-7.43-18.74-12.62-30.06-8.26-8.35,3.71-14.37,10.56-16.11,18.36-1.7,7.62,.79,15.57,7.2,23,2.84,2.82,7.02,5.66,11.07,3.51,3.54-1.87,5.4-6.33,4.85-9.17-.15-.77-.55-2.83-4.94-3.29-3.3-.35-5.69-3.3-5.34-6.59,.35-3.3,3.29-5.69,6.59-5.34,8.29,.87,14.07,5.71,15.47,12.95,1.62,8.4-3.12,17.88-11.03,22.06-3.86,2.04-14.07,5.56-25.33-5.81l-.26-.28c-8.99-10.32-12.54-22.27-9.99-33.65,2.58-11.54,11.22-21.55,23.1-26.78l.23-.09c17.39-6.8,34.87,1.29,43.75,11.69l.15,.19c11.48,14.6,13.11,41.71,3.63,60.42Z" />
  </g>
</svg>